# xmcd
#
# Track frame offsets: 
#        150
#        14631
#        27804
#        41002
#        52820
#        65927
#        82832
#        94199
#        108332
#        120667
#        135562
#        150700
#        166041
#        179971
#        194434
#        208305
#        224004
#        237553
#        251298
#        263812
#        275979
#        290884
#        305679
#        317826
#        329558
#
# Disc length: 4529 seconds
#
# Revision: 0
# Processed by: cddbd v1.5.2PL0 Copyright (c) Steve Scherf et al.
# Submitted via: ExactAudioCopy v1.0b3
#
DISCID=8c11af19
DTITLE=美空ひばり - ミソラヒバリ リズム歌謡を歌う 1949-1967 Disc 2 COCP-33949-50
DYEAR=1900
DGENRE=JPop
TTITLE0=ふり袖小僧
TTITLE1=恋を待つならバス・ストップ
TTITLE2=ロカビリー芸者
TTITLE3=泣き笑いのマンボ
TTITLE4=かもめとそよ風
TTITLE5=素敵な今夜
TTITLE6=すたこらマンボ
TTITLE7=恋は水の上で 
TTITLE8=車屋さん
TTITLE9=ひばりのドドンパ 
TTITLE10=ラースト・ナイト
TTITLE11=テンガロン・ハット 
TTITLE12=恋は不思議なもの
TTITLE13=お嬢さんとこいさん
TTITLE14=ブルー・ツイスト 
TTITLE15=ひばりのツイスト
TTITLE16=相馬盆唄 
TTITLE17=星影の浜辺 
TTITLE18=ロマンチックなキューピット
TTITLE19=ブルーマンボ 
TTITLE20=死ぬほど好き 
TTITLE21=二人だけの渚 
TTITLE22=真赤な太陽 
TTITLE23=さよならの向うに 
TTITLE24=おてもやん
EXTD=
EXTT0=
EXTT1=
EXTT2=
EXTT3=
EXTT4=
EXTT5=
EXTT6=
EXTT7=
EXTT8=
EXTT9=
EXTT10=
EXTT11=
EXTT12=
EXTT13=
EXTT14=
EXTT15=
EXTT16=
EXTT17=
EXTT18=
EXTT19=
EXTT20=
EXTT21=
EXTT22=
EXTT23=
EXTT24=
PLAYORDER=
